<svg width="20" height="20" viewBox="0 0 20 20" fill="none" xmlns="http://www.w3.org/2000/svg">
<path d="M10.7494 9.99712L16.3774 4.36362C16.4767 4.26384 16.5324 4.12878 16.5323 3.98801C16.5322 3.84725 16.4763 3.71226 16.3769 3.61262C16.1779 3.41462 15.8274 3.41362 15.6264 3.61362L9.99992 9.24712L4.37142 3.61212C4.17142 3.41462 3.82092 3.41562 3.62192 3.61312C3.57253 3.66231 3.53342 3.72086 3.5069 3.78533C3.48037 3.8498 3.46695 3.9189 3.46742 3.98862C3.46742 4.13062 3.52242 4.26362 3.62192 4.36212L9.24992 9.99662L3.62242 15.6316C3.52311 15.7316 3.4675 15.8668 3.46778 16.0077C3.46806 16.1486 3.52421 16.2836 3.62392 16.3831C3.72042 16.4786 3.85692 16.5336 3.99792 16.5336H4.00092C4.14242 16.5331 4.27892 16.4776 4.37342 16.3811L9.99992 10.7476L15.6284 16.3826C15.7279 16.4816 15.8609 16.5366 16.0019 16.5366C16.0716 16.5368 16.1407 16.5232 16.2052 16.4966C16.2696 16.47 16.3282 16.431 16.3775 16.3817C16.4268 16.3324 16.4659 16.2738 16.4924 16.2094C16.519 16.1449 16.5326 16.0758 16.5324 16.0061C16.5324 15.8646 16.4774 15.7311 16.3774 15.6326L10.7494 9.99712Z" fill="black"/>
</svg>
