<svg width="66" height="66" viewBox="0 0 66 66" fill="none" xmlns="http://www.w3.org/2000/svg">
<path d="M8.74941 35.7501H11.4994V55.0001C11.4994 58.0333 13.9662 60.5001 16.9994 60.5001H49.9994C53.0327 60.5001 55.4994 58.0333 55.4994 55.0001V35.7501H58.2494C58.7932 35.7499 59.3248 35.5886 59.7769 35.2864C60.229 34.9842 60.5814 34.5548 60.7895 34.0524C60.9976 33.5499 61.0521 32.9971 60.946 32.4637C60.84 31.9304 60.5781 31.4404 60.1937 31.0558L35.4437 6.30581C35.1885 6.05021 34.8854 5.84743 34.5518 5.70908C34.2182 5.57073 33.8606 5.49951 33.4994 5.49951C33.1382 5.49951 32.7806 5.57073 32.447 5.70908C32.1134 5.84743 31.8103 6.05021 31.5552 6.30581L6.80516 31.0558C6.42069 31.4404 6.15887 31.9304 6.05281 32.4637C5.94675 32.9971 6.00121 33.5499 6.2093 34.0524C6.41739 34.5548 6.76978 34.9842 7.2219 35.2864C7.67403 35.5886 8.2056 35.7499 8.74941 35.7501ZM33.4994 12.1386L49.9994 28.6386V41.2501L50.0022 55.0001H16.9994V28.6386L33.4994 12.1386Z" fill="#FC6805"/>
<path d="M32.6125 49.4999C42.7957 49.4999 46.0903 39.7676 46.225 39.3551L41 37.6474C40.978 37.7106 38.8522 43.9999 32.6125 43.9999C26.458 43.9999 24.3075 37.8921 24.2223 37.6309L19 39.3551C19.1347 39.7676 22.4292 49.4999 32.6125 49.4999Z" fill="#FC6805"/>
</svg>
