<svg width="44" height="50" viewBox="0 0 44 50" fill="none" xmlns="http://www.w3.org/2000/svg">
<g clip-path="url(#clip0_63_227)">
<rect x="2" y="8" width="39" height="33" fill="white"/>
<path d="M21.875 19.791C20.8448 19.7914 19.8379 20.0972 18.9816 20.6698C18.1252 21.2424 17.4579 22.0561 17.0639 23.008C16.67 23.9598 16.5671 25.0071 16.7683 26.0174C16.9695 27.0277 17.4658 27.9557 18.1943 28.684C18.9229 29.4123 19.8511 29.9082 20.8614 30.109C21.8718 30.3099 22.9191 30.2066 23.8708 29.8123C24.8225 29.418 25.6359 28.7503 26.2082 27.8938C26.7805 27.0372 27.0859 26.0302 27.0859 25C27.0849 23.6185 26.5355 22.2939 25.5584 21.3171C24.5814 20.3404 23.2565 19.7915 21.875 19.791ZM34.0537 15.7871C33.7885 15.1151 33.3881 14.5047 32.8772 13.9939C32.3664 13.483 31.756 13.0826 31.084 12.8174C29.0332 12.0078 24.1504 12.1895 21.875 12.1895C19.5996 12.1895 14.7217 12.001 12.665 12.8174C11.993 13.0826 11.3826 13.483 10.8718 13.9939C10.3609 14.5047 9.96049 15.1151 9.69531 15.7871C8.88672 17.8379 9.06738 22.7256 9.06738 24.999C9.06738 27.2725 8.88672 32.1543 9.69922 34.2119C9.9644 34.8839 10.3648 35.4943 10.8757 36.0052C11.3865 36.516 11.9969 36.9165 12.6689 37.1816C14.7197 37.9912 19.6025 37.8096 21.8789 37.8096C24.1553 37.8096 29.0312 37.998 31.0879 37.1816C31.7599 36.9165 32.3703 36.516 32.8811 36.0052C33.392 35.4943 33.7924 34.8839 34.0576 34.2119C34.873 32.1611 34.6855 27.2734 34.6855 25C34.6855 22.7266 34.873 17.8457 34.0576 15.7881L34.0537 15.7871ZM21.875 33.0078C20.2912 33.0078 18.743 32.5382 17.4261 31.6583C16.1092 30.7783 15.0828 29.5277 14.4767 28.0645C13.8707 26.6012 13.7121 24.9911 14.0211 23.4378C14.33 21.8844 15.0927 20.4575 16.2126 19.3376C17.3325 18.2177 18.7594 17.455 20.3128 17.1461C21.8661 16.8371 23.4762 16.9957 24.9395 17.6017C26.4027 18.2078 27.6533 19.2342 28.5333 20.5511C29.4132 21.868 29.8828 23.4162 29.8828 25C29.8841 26.052 29.6778 27.0938 29.2759 28.066C28.8739 29.0381 28.2841 29.9214 27.5402 30.6652C26.7964 31.4091 25.9131 31.9989 24.941 32.4009C23.9688 32.8028 22.927 33.0091 21.875 33.0078ZM30.2129 18.5254C29.8432 18.5256 29.4817 18.4161 29.1742 18.2109C28.8667 18.0056 28.627 17.7137 28.4853 17.3722C28.3437 17.0307 28.3066 16.6548 28.3786 16.2922C28.4506 15.9296 28.6285 15.5964 28.8899 15.3349C29.1513 15.0734 29.4843 14.8953 29.8469 14.8231C30.2095 14.7509 30.5854 14.7879 30.927 14.9293C31.2686 15.0707 31.5606 15.3103 31.766 15.6177C31.9714 15.9251 32.0811 16.2865 32.0811 16.6562C32.0821 16.9018 32.0346 17.1451 31.9414 17.3722C31.8482 17.5994 31.7111 17.8059 31.5379 17.9799C31.3647 18.1539 31.1588 18.292 30.9321 18.3863C30.7054 18.4806 30.4623 18.5292 30.2168 18.5293L30.2129 18.5254ZM39.0625 3.125H4.6875C3.4443 3.125 2.25201 3.61886 1.37294 4.49794C0.49386 5.37701 0 6.5693 0 7.8125L0 42.1875C0 43.4307 0.49386 44.623 1.37294 45.5021C2.25201 46.3811 3.4443 46.875 4.6875 46.875H39.0625C40.3057 46.875 41.498 46.3811 42.3771 45.5021C43.2561 44.623 43.75 43.4307 43.75 42.1875V7.8125C43.75 6.5693 43.2561 5.37701 42.3771 4.49794C41.498 3.61886 40.3057 3.125 39.0625 3.125ZM37.3906 31.4453C37.2646 33.9482 36.6934 36.166 34.8662 37.9883C33.0391 39.8105 30.8232 40.3936 28.3232 40.5127C25.7441 40.6582 18.0117 40.6582 15.4326 40.5127C12.9297 40.3867 10.7197 39.8145 8.88965 37.9883C7.05957 36.1621 6.48438 33.9434 6.36523 31.4453C6.21973 28.8652 6.21973 21.1318 6.36523 18.5547C6.49121 16.0518 7.05566 13.834 8.88965 12.0117C10.7236 10.1895 12.9395 9.61328 15.4326 9.49414C18.0117 9.34863 25.7441 9.34863 28.3232 9.49414C30.8262 9.62012 33.043 10.1924 34.8662 12.0186C36.6895 13.8447 37.2715 16.0635 37.3906 18.5664C37.5361 21.1367 37.5361 28.8633 37.3906 31.4453Z" fill="black"/>
</g>
<defs>
<clipPath id="clip0_63_227">
<rect width="43.75" height="50" fill="white"/>
</clipPath>
</defs>
</svg>
