<svg width="40" height="40" viewBox="0 0 40 40" fill="none" xmlns="http://www.w3.org/2000/svg">
<path d="M32.4997 36.25H32.2872C7.7247 34.8375 4.2372 14.1125 3.7497 7.7875C3.71042 7.29573 3.76856 6.80103 3.92079 6.33176C4.07303 5.8625 4.31636 5.42788 4.63685 5.05282C4.95733 4.67775 5.34868 4.36961 5.78846 4.14605C6.22824 3.92249 6.70782 3.7879 7.1997 3.75H14.0872C14.5879 3.74952 15.0772 3.89939 15.4917 4.1802C15.9063 4.46102 16.2269 4.85984 16.4122 5.325L18.3122 10C18.4951 10.4544 18.5405 10.9526 18.4428 11.4326C18.345 11.9126 18.1083 12.3533 17.7622 12.7L15.0997 15.3875C15.5156 17.7509 16.6474 19.9296 18.3421 21.6287C20.0367 23.3278 22.2124 24.4654 24.5747 24.8875L27.2872 22.2C27.6391 21.8577 28.0839 21.6266 28.5663 21.5354C29.0487 21.4443 29.5472 21.4972 29.9997 21.6875L34.7122 23.575C35.1704 23.7661 35.5612 24.0893 35.835 24.5033C36.1089 24.9174 36.2532 25.4036 36.2497 25.9V32.5C36.2497 33.4946 35.8546 34.4484 35.1514 35.1517C34.4481 35.8549 33.4943 36.25 32.4997 36.25ZM7.4997 6.25C7.16818 6.25 6.85024 6.3817 6.61582 6.61612C6.3814 6.85054 6.2497 7.16848 6.2497 7.5V7.6C6.8247 15 10.5122 32.5 32.4247 33.75C32.5889 33.7601 32.7535 33.7378 32.9091 33.6842C33.0646 33.6306 33.2081 33.5468 33.3312 33.4376C33.4543 33.3285 33.5546 33.1961 33.6264 33.048C33.6983 32.9 33.7401 32.7393 33.7497 32.575V25.9L29.0372 24.0125L25.4497 27.575L24.8497 27.5C13.9747 26.1375 12.4997 15.2625 12.4997 15.15L12.4247 14.55L15.9747 10.9625L14.0997 6.25H7.4997Z" fill="white"/>
</svg>
