<svg width="21" height="24" viewBox="0 0 21 24" fill="none" xmlns="http://www.w3.org/2000/svg">
<path d="M5 23.875H7.75V19.75H16V17H7.75V14.25H13.9375C17.7284 14.25 20.8125 11.1659 20.8125 7.375C20.8125 3.58412 17.7284 0.5 13.9375 0.5H6.375C6.01033 0.5 5.66059 0.644866 5.40273 0.902728C5.14487 1.16059 5 1.51033 5 1.875V11.5H0.875V14.25H5V17H0.875V19.75H5V23.875ZM7.75 3.25H13.9375C16.2118 3.25 18.0625 5.10075 18.0625 7.375C18.0625 9.64925 16.2118 11.5 13.9375 11.5H7.75V3.25Z" fill="#0B5C0B"/>
</svg>
