<svg width="46" height="46" viewBox="0 0 46 46" fill="none" xmlns="http://www.w3.org/2000/svg">
<path d="M45.3157 9.46257C43.7153 10.1717 41.9961 10.6509 40.1887 10.8675C42.0536 9.75159 43.4488 7.9953 44.114 5.92632C42.3619 6.96705 40.4442 7.69961 38.4445 8.09215C37.0997 6.65631 35.3185 5.70461 33.3774 5.38481C31.4364 5.06501 29.444 5.395 27.7097 6.32355C25.9754 7.2521 24.5961 8.72726 23.7861 10.52C22.9761 12.3127 22.7806 14.3228 23.23 16.238C19.6797 16.0597 16.2066 15.137 13.036 13.5296C9.86549 11.9222 7.06834 9.66604 4.82615 6.90765C4.05948 8.23015 3.61865 9.76348 3.61865 11.3965C3.61779 12.8666 3.97981 14.3141 4.67258 15.6107C5.36535 16.9073 6.36746 18.0129 7.58998 18.8293C6.17218 18.7842 4.78566 18.4011 3.54582 17.7119V17.8269C3.54567 19.8887 4.25888 21.8871 5.56442 23.483C6.86995 25.0788 8.68741 26.1739 10.7084 26.5822C9.39315 26.9382 8.01421 26.9906 6.67573 26.7356C7.24593 28.5097 8.35664 30.061 9.85235 31.1725C11.3481 32.284 13.1539 32.8999 15.0171 32.9341C11.8542 35.4169 7.94818 36.7637 3.92723 36.7578C3.21496 36.758 2.50329 36.7164 1.7959 36.6332C5.87739 39.2575 10.6286 40.6502 15.4809 40.6448C31.9067 40.6448 40.8863 27.0403 40.8863 15.2413C40.8863 14.858 40.8767 14.4708 40.8595 14.0875C42.6061 12.8244 44.1138 11.2602 45.3119 9.46832L45.3157 9.46257Z" fill="white"/>
</svg>
