<svg width="50" height="50" viewBox="0 0 50 50" fill="none" xmlns="http://www.w3.org/2000/svg">
<path d="M33.594 3.90625V6.10312C32.313 6.32312 31.0965 6.8236 30.0315 7.56875L28.419 6.05312L26.2706 8.35L27.8331 9.81406C27.1183 10.8558 26.635 12.0386 26.4159 13.2828H24.219V16.4078H26.4159C26.644 17.7047 27.1565 18.8859 27.8815 19.9234L26.2206 21.5328L28.4706 23.7828L30.08 22.1203C31.1175 22.8453 32.2987 23.3578 33.5956 23.5859V25.7812H36.7206V23.5844C37.9647 23.3658 39.1475 22.8831 40.1894 22.1687L41.6519 23.7312L43.9487 21.5812L42.4331 19.9719C43.1675 18.925 43.6675 17.7141 43.8987 16.4062H46.094V13.2812H43.8972C43.6723 12.0161 43.1719 10.8159 42.4315 9.76562L43.8972 8.3L41.6987 6.10312L40.2347 7.56875C39.1844 6.82839 37.9842 6.32803 36.719 6.10312V3.90625H33.594ZM35.1565 9.08281C35.9145 9.07783 36.666 9.22343 37.3673 9.51116C38.0686 9.79889 38.7057 10.223 39.2418 10.759C39.7779 11.2949 40.2022 11.9319 40.4901 12.6331C40.778 13.3343 40.9238 14.0857 40.919 14.8437C40.919 18.0547 38.3675 20.6062 35.1565 20.6062C31.9456 20.6062 29.394 18.0547 29.394 14.8437C29.394 11.6328 31.9456 9.08125 35.1565 9.08125V9.08281ZM14.8909 18.3094L12.0128 19.4812L13.1347 22.3094C11.6413 23.2031 10.385 24.4432 9.47217 25.925L6.69092 24.8L5.51904 27.6828L8.30029 28.8047C8.08079 29.6499 7.96638 30.519 7.95967 31.3922C7.95967 32.2828 8.09248 33.1516 8.30029 33.9797L5.51904 35.1047L6.69092 37.9844L9.47217 36.8594C10.3767 38.3605 11.6339 39.6183 13.1347 40.5234L12.0097 43.3047L14.8925 44.4766L16.0175 41.6953C16.8626 41.9154 17.7317 42.0298 18.605 42.0359C19.4956 42.0359 20.3675 41.9031 21.1925 41.6953L22.3175 44.4766L25.1972 43.3047L24.0722 40.5234C25.555 39.6119 26.7954 38.3554 27.6878 36.8609L30.5159 37.9828L31.6878 35.1031L28.8597 33.9781C29.0628 33.15 29.2003 32.2797 29.2003 31.3906C29.2003 30.5 29.0644 29.6281 28.8565 28.8016L31.6894 27.6797L30.5175 24.7969L27.6894 25.9219C26.7919 24.4439 25.5517 23.2037 24.0737 22.3062L25.1987 19.4781L22.3159 18.3062L21.1956 21.1344C20.3496 20.9163 19.4802 20.8024 18.6065 20.7953C17.7159 20.7953 16.8472 20.9297 16.019 21.1359L14.894 18.3078L14.8909 18.3094ZM18.6034 23.9219C22.7644 23.9219 26.0722 27.2344 26.0722 31.3937C26.0753 35.5547 22.7644 38.9125 18.6034 38.9125C17.6157 38.9137 16.6374 38.7201 15.7247 38.3427C14.8119 37.9653 13.9825 37.4115 13.2841 36.7131C12.5857 36.0146 12.0319 35.1853 11.6545 34.2725C11.2771 33.3597 11.0834 32.3815 11.0847 31.3937C11.0847 27.2328 14.444 23.9219 18.6034 23.9219Z" fill="#0B5C0B"/>
</svg>
