<svg width="50" height="50" viewBox="0 0 50 50" fill="none" xmlns="http://www.w3.org/2000/svg">
<path d="M46.216 24.6582L27.3488 5.80078L26.0842 4.53613C25.796 4.24989 25.4064 4.08923 25.0002 4.08923C24.594 4.08923 24.2044 4.24989 23.9162 4.53613L3.78438 24.6582C3.48912 24.9523 3.25578 25.3026 3.09811 25.6884C2.94045 26.0741 2.86167 26.4876 2.86641 26.9043C2.88594 28.623 4.31661 29.9951 6.03536 29.9951H8.11055V45.8984H41.8899V29.9951H44.009C44.844 29.9951 45.6301 29.668 46.2209 29.0771C46.5118 28.7872 46.7423 28.4424 46.8991 28.0627C47.0558 27.683 47.1356 27.276 47.134 26.8652C47.134 26.0352 46.8068 25.249 46.216 24.6582ZM27.7346 42.3828H22.2658V32.4219H27.7346V42.3828ZM38.3742 26.4795V42.3828H30.8596V31.25C30.8596 30.1709 29.9856 29.2969 28.9065 29.2969H21.094C20.0149 29.2969 19.1408 30.1709 19.1408 31.25V42.3828H11.6262V26.4795H6.93868L25.0051 8.42774L26.133 9.55567L43.0666 26.4795H38.3742Z" fill="#0B5C0B"/>
</svg>
