<svg width="46" height="46" viewBox="0 0 46 46" fill="none" xmlns="http://www.w3.org/2000/svg">
<path d="M40.25 2.875C41.0125 2.875 41.7438 3.1779 42.2829 3.71707C42.8221 4.25624 43.125 4.9875 43.125 5.75V40.25C43.125 41.0125 42.8221 41.7438 42.2829 42.2829C41.7438 42.8221 41.0125 43.125 40.25 43.125H5.75C4.9875 43.125 4.25624 42.8221 3.71707 42.2829C3.1779 41.7438 2.875 41.0125 2.875 40.25V5.75C2.875 4.9875 3.1779 4.25624 3.71707 3.71707C4.25624 3.1779 4.9875 2.875 5.75 2.875H40.25ZM5.75 0C4.22501 0 2.76247 0.605802 1.68414 1.68414C0.605802 2.76247 0 4.22501 0 5.75L0 40.25C0 41.775 0.605802 43.2375 1.68414 44.3159C2.76247 45.3942 4.22501 46 5.75 46H40.25C41.775 46 43.2375 45.3942 44.3159 44.3159C45.3942 43.2375 46 41.775 46 40.25V5.75C46 4.22501 45.3942 2.76247 44.3159 1.68414C43.2375 0.605802 41.775 0 40.25 0L5.75 0Z" fill="#0B5C0B"/>
<path d="M25.6736 18.9405L19.0899 19.7656L18.8541 20.8581L20.1479 21.0967C20.9931 21.298 21.1599 21.6027 20.9759 22.4451L18.8541 32.4156C18.2964 34.9945 19.156 36.2077 21.1771 36.2077C22.744 36.2077 24.5639 35.4832 25.389 34.4885L25.642 33.2925C25.067 33.7985 24.2275 33.9997 23.6697 33.9997C22.8791 33.9997 22.5916 33.4449 22.7957 32.4674L25.6736 18.9405ZM25.8749 12.9375C25.8749 13.7 25.572 14.4313 25.0328 14.9704C24.4936 15.5096 23.7624 15.8125 22.9999 15.8125C22.2374 15.8125 21.5061 15.5096 20.9669 14.9704C20.4278 14.4313 20.1249 13.7 20.1249 12.9375C20.1249 12.175 20.4278 11.4437 20.9669 10.9046C21.5061 10.3654 22.2374 10.0625 22.9999 10.0625C23.7624 10.0625 24.4936 10.3654 25.0328 10.9046C25.572 11.4437 25.8749 12.175 25.8749 12.9375Z" fill="#0B5C0B"/>
</svg>
