<svg width="50" height="50" viewBox="0 0 50 50" fill="none" xmlns="http://www.w3.org/2000/svg">
<g clip-path="url(#clip0_124_29)">
<path d="M44.625 12.5V9.375C44.6241 8.54648 44.2945 7.75217 43.7087 7.16632C43.1228 6.58047 42.3285 6.25093 41.5 6.25H7.125C6.29648 6.25093 5.50217 6.58047 4.91632 7.16632C4.33047 7.75217 4.00093 8.54648 4 9.375V12.5C4.00093 13.3285 4.33047 14.1228 4.91632 14.7087C5.50217 15.2945 6.29648 15.6241 7.125 15.625V34.375H5.5625C5.1481 34.375 4.75067 34.5396 4.45765 34.8326C4.16462 35.1257 4 35.5231 4 35.9375C4 36.3519 4.16462 36.7493 4.45765 37.0424C4.75067 37.3354 5.1481 37.5 5.5625 37.5H22.75V40.8938C21.7075 41.2623 20.8288 41.9876 20.2693 42.9414C19.7098 43.8951 19.5055 45.016 19.6925 46.1058C19.8795 47.1957 20.4457 48.1843 21.2912 48.897C22.1366 49.6098 23.2067 50.0007 24.3125 50.0007C25.4183 50.0007 26.4884 49.6098 27.3338 48.897C28.1793 48.1843 28.7455 47.1957 28.9325 46.1058C29.1195 45.016 28.9152 43.8951 28.3557 42.9414C27.7962 41.9876 26.9175 41.2623 25.875 40.8938V37.5H43.0625C43.4769 37.5 43.8743 37.3354 44.1674 37.0424C44.4604 36.7493 44.625 36.3519 44.625 35.9375C44.625 35.5231 44.4604 35.1257 44.1674 34.8326C43.8743 34.5396 43.4769 34.375 43.0625 34.375H41.5V15.625C42.3285 15.6241 43.1228 15.2945 43.7087 14.7087C44.2945 14.1228 44.6241 13.3285 44.625 12.5ZM24.3125 46.875C24.0035 46.875 23.7014 46.7834 23.4444 46.6117C23.1875 46.44 22.9872 46.1959 22.8689 45.9104C22.7507 45.6249 22.7197 45.3108 22.78 45.0077C22.8403 44.7046 22.9891 44.4262 23.2076 44.2076C23.4262 43.9891 23.7046 43.8403 24.0077 43.78C24.3108 43.7197 24.6249 43.7507 24.9104 43.8689C25.1959 43.9872 25.44 44.1875 25.6117 44.4444C25.7834 44.7014 25.875 45.0035 25.875 45.3125C25.8745 45.7267 25.7097 46.1239 25.4168 46.4168C25.1239 46.7097 24.7267 46.8745 24.3125 46.875ZM7.125 9.375H41.5L41.5019 12.5H7.125V9.375ZM38.375 34.375H10.25V15.625H38.375V34.375Z" fill="#0B5C0B"/>
</g>
<defs>
<clipPath id="clip0_124_29">
<rect width="50" height="50" fill="white"/>
</clipPath>
</defs>
</svg>
