<svg width="50" height="51" viewBox="0 0 50 51" fill="none" xmlns="http://www.w3.org/2000/svg">
<circle cx="25" cy="25.8018" r="25" fill="#FC6805"/>
<g clip-path="url(#clip0_124_58)">
<path d="M25 13.5046C29.0051 13.5046 29.4795 13.5198 31.0612 13.5919C32.5237 13.6587 33.318 13.903 33.8466 14.1084C34.5467 14.3805 35.0464 14.7056 35.5712 15.2305C36.0962 15.7554 36.4212 16.2551 36.6933 16.9552C36.8988 17.4838 37.1431 18.2781 37.2099 19.7405C37.282 21.3223 37.2972 21.7966 37.2972 25.8018C37.2972 29.807 37.282 30.2814 37.2099 31.863C37.1431 33.3255 36.8988 34.1197 36.6933 34.6484C36.4212 35.3484 36.0961 35.8482 35.5712 36.3731C35.0464 36.898 34.5467 37.2231 33.8466 37.4951C33.318 37.7005 32.5237 37.945 31.0612 38.0116C29.4797 38.0838 29.0054 38.0991 25 38.0991C20.9945 38.0991 20.5202 38.0838 18.9387 38.0116C17.4762 37.9448 16.682 37.7005 16.1534 37.4951C15.4533 37.2231 14.9535 36.898 14.4286 36.3731C13.9037 35.8481 13.5787 35.3484 13.3067 34.6484C13.1012 34.1198 12.8568 33.3255 12.7901 31.863C12.7179 30.2814 12.7027 29.807 12.7027 25.8018C12.7027 21.7966 12.7179 21.3223 12.7901 19.7406C12.8569 18.2781 13.1012 17.4838 13.3067 16.9552C13.5787 16.2551 13.9037 15.7554 14.4286 15.2305C14.9536 14.7055 15.4533 14.3805 16.1534 14.1084C16.6819 13.903 17.4762 13.6587 18.9387 13.5919C20.5204 13.5198 20.9948 13.5046 25 13.5046ZM25 10.8018C20.9262 10.8018 20.4154 10.819 18.8155 10.892C17.2189 10.9649 16.1284 11.2185 15.1744 11.5893C14.1879 11.9726 13.3514 12.4855 12.5175 13.3194C11.6836 14.1533 11.1708 14.9898 10.7875 15.9762C10.4166 16.9303 10.1631 18.0207 10.0902 19.6173C10.0172 21.2171 10 21.728 10 25.8018C10 29.8755 10.0172 30.3864 10.0902 31.9862C10.1631 33.5829 10.4166 34.6733 10.7875 35.6273C11.1707 36.6137 11.6836 37.4503 12.5175 38.2842C13.3514 39.1181 14.1879 39.6309 15.1744 40.0143C16.1286 40.3852 17.2189 40.6386 18.8154 40.7115C20.4154 40.7845 20.9262 40.8018 25 40.8018C29.0738 40.8018 29.5846 40.7845 31.1845 40.7115C32.781 40.6386 33.8714 40.3852 34.8255 40.0143C35.812 39.6311 36.6484 39.1181 37.4823 38.2842C38.3162 37.4503 38.8292 36.6138 39.2125 35.6273C39.5833 34.6732 39.8369 33.5829 39.9098 31.9863C39.9828 30.3864 40 29.8755 40 25.8018C40 21.728 39.9828 21.2171 39.9098 19.6173C39.8369 18.0207 39.5833 16.9303 39.2125 15.9763C38.8292 14.9898 38.3162 14.1533 37.4823 13.3194C36.6484 12.4855 35.812 11.9725 34.8256 11.5893C33.8714 11.2185 32.781 10.9649 31.1845 10.892C29.5846 10.819 29.0738 10.8018 25 10.8018ZM25 18.099C20.7459 18.099 17.2973 21.5479 17.2973 25.8018C17.2973 30.0559 20.7459 33.5045 25 33.5045C29.254 33.5045 32.7027 30.0559 32.7027 25.8018C32.7027 21.5477 29.254 18.099 25 18.099ZM25 30.8018C22.2386 30.8018 20 28.5632 20 25.8018C20 23.0404 22.2386 20.8017 25 20.8017C27.7614 20.8017 30 23.0404 30 25.8018C30 28.5632 27.7614 30.8018 25 30.8018ZM34.807 17.7947C34.807 18.7889 34.0012 19.5947 33.007 19.5947C32.0129 19.5947 31.207 18.7889 31.207 17.7947C31.207 16.8006 32.0129 15.9947 33.007 15.9947C34.0012 15.9947 34.807 16.8006 34.807 17.7947Z" fill="white"/>
</g>
<defs>
<clipPath id="clip0_124_58">
<rect width="30" height="30" fill="white" transform="translate(10 10.8018)"/>
</clipPath>
</defs>
</svg>
