<svg width="50" height="50" viewBox="0 0 50 50" fill="none" xmlns="http://www.w3.org/2000/svg">
<path d="M22.9165 16.7042C22.9067 17.112 22.7378 17.4999 22.4458 17.7848C22.1538 18.0698 21.762 18.2293 21.354 18.2292C19.7915 18.2292 19.7915 16.6646 19.7915 16.6646V16.6458C19.7926 16.5526 19.7982 16.4594 19.8082 16.3667C19.9003 15.5619 20.202 14.7954 20.6832 14.1437C21.629 12.8667 23.329 11.9312 26.0686 11.9792C28.0478 12.0146 29.804 12.8437 30.904 14.2083C32.0228 15.5979 32.3998 17.4792 31.6582 19.3312C30.904 21.2167 29.1978 21.9667 28.2165 22.3958L28.1123 22.4437C27.529 22.7 27.2519 22.8333 27.0853 22.9667L27.0832 22.9687V24.4771C27.0834 24.8915 26.9191 25.289 26.6263 25.5822C26.3334 25.8755 25.9361 26.0403 25.5217 26.0406C25.1073 26.0409 24.7098 25.8765 24.4166 25.5837C24.1233 25.2909 23.9584 24.8936 23.9582 24.4792V22.9167C23.9582 21.8271 24.4832 21.0479 25.1311 20.5271C25.6519 20.1104 26.3082 19.8229 26.7686 19.6187L26.8478 19.5833C27.9769 19.0854 28.5144 18.7771 28.7582 18.1687C28.9013 17.8417 28.9502 17.4811 28.8994 17.1278C28.8486 16.7744 28.7001 16.4423 28.4707 16.1687C28.0082 15.5958 27.1603 15.1229 26.0144 15.1042C24.0665 15.0708 23.4207 15.6979 23.1957 16.0042C23.0467 16.2064 22.9507 16.4428 22.9165 16.6917V16.7042Z" fill="#0B5C0B"/>
<path d="M25.5208 32.2917C26.0734 32.2917 26.6033 32.0722 26.994 31.6815C27.3847 31.2908 27.6042 30.7609 27.6042 30.2083C27.6042 29.6558 27.3847 29.1259 26.994 28.7352C26.6033 28.3445 26.0734 28.125 25.5208 28.125C24.9683 28.125 24.4384 28.3445 24.0477 28.7352C23.657 29.1259 23.4375 29.6558 23.4375 30.2083C23.4375 30.7609 23.657 31.2908 24.0477 31.6815C24.4384 32.0722 24.9683 32.2917 25.5208 32.2917Z" fill="#0B5C0B"/>
<path d="M8.33325 9.375C8.33325 7.99367 8.88199 6.66891 9.85874 5.69215C10.8355 4.7154 12.1602 4.16667 13.5416 4.16667H37.4999C38.1839 4.16667 38.8612 4.30139 39.4931 4.56313C40.125 4.82487 40.6991 5.20852 41.1828 5.69215C41.6664 6.17579 42.05 6.74995 42.3118 7.38186C42.5735 8.01376 42.7083 8.69103 42.7083 9.375V39.0625C42.7083 39.4769 42.5436 39.8743 42.2506 40.1674C41.9576 40.4604 41.5602 40.625 41.1458 40.625H11.4583C11.4583 41.1775 11.6777 41.7074 12.0684 42.0981C12.4591 42.4888 12.9891 42.7083 13.5416 42.7083H41.1458C41.5602 42.7083 41.9576 42.873 42.2506 43.166C42.5436 43.459 42.7083 43.8564 42.7083 44.2708C42.7083 44.6852 42.5436 45.0827 42.2506 45.3757C41.9576 45.6687 41.5602 45.8333 41.1458 45.8333H13.5416C12.1602 45.8333 10.8355 45.2846 9.85874 44.3079C8.88199 43.3311 8.33325 42.0063 8.33325 40.625V9.375ZM11.4583 9.375V37.5H39.5833V9.375C39.5833 8.82247 39.3638 8.29256 38.9731 7.90186C38.5824 7.51116 38.0525 7.29167 37.4999 7.29167H13.5416C12.9891 7.29167 12.4591 7.51116 12.0684 7.90186C11.6777 8.29256 11.4583 8.82247 11.4583 9.375Z" fill="#0B5C0B"/>
</svg>
