<svg width="47" height="50" viewBox="0 0 47 50" fill="none" xmlns="http://www.w3.org/2000/svg">
<path d="M8.74156 8.79166L37.2473 7.81516L38.6266 42.4811L26.6726 48.8284H19.3163L7.82202 41.9928L8.74156 8.79166Z" fill="white"/>
<path d="M45.9828 24.5652C45.9828 10.9979 35.6897 0 22.9943 0C10.2931 0.00305158 0 10.9979 0 24.5683C0 36.8265 8.40805 46.9882 19.3966 48.8314V31.6662H13.5632V24.5683H19.4023V19.1517C19.4023 12.9967 22.8362 9.59721 28.0862 9.59721C30.6034 9.59721 33.2328 10.0763 33.2328 10.0763V16.1184H30.3333C27.4799 16.1184 26.5891 18.0135 26.5891 19.9573V24.5652H32.9626L31.9454 31.6632H26.5862V48.8283C37.5747 46.9851 45.9828 36.8234 45.9828 24.5652Z" fill="#FC6805"/>
</svg>
